<svg width="32" height="30" viewBox="0 0 32 30" fill="none" xmlns="http://www.w3.org/2000/svg">
<g filter="url(#filter0_d_3946_1922)">
<path d="M29.5 9.99184C29.5 18.4448 21.05 24.9693 17.2796 27.4599C16.1881 28.1808 14.8123 28.1799 13.7215 27.4579C9.95167 24.9625 1.5 18.4274 1.5 9.99184C1.5 8.31449 2.01362 6.67966 2.96812 5.31893C3.92261 3.95819 5.26958 2.94054 6.81823 2.41012C8.36688 1.87969 10.0387 1.86339 11.5969 2.36352C13.155 2.86365 14.5205 3.85486 15.5 5.19674C16.4795 3.85486 17.845 2.86365 19.4031 2.36352C20.9613 1.86339 22.6331 1.87969 24.1818 2.41012C25.7304 2.94054 27.0774 3.95819 28.0319 5.31893C28.9864 6.67966 29.5 8.31449 29.5 9.99184Z" fill="white"/>
</g>
<defs>
<filter id="filter0_d_3946_1922" x="0.5" y="0" width="32" height="32" filterUnits="userSpaceOnUse" color-interpolation-filters="sRGB">
<feFlood flood-opacity="0" result="BackgroundImageFix"/>
<feColorMatrix in="SourceAlpha" type="matrix" values="0 0 0 0 0 0 0 0 0 0 0 0 0 0 0 0 0 0 127 0" result="hardAlpha"/>
<feOffset dx="1" dy="1"/>
<feGaussianBlur stdDeviation="0.5"/>
<feComposite in2="hardAlpha" operator="out"/>
<feColorMatrix type="matrix" values="0 0 0 0 0 0 0 0 0 0 0 0 0 0 0 0 0 0 0.25 0"/>
<feBlend mode="normal" in2="BackgroundImageFix" result="effect1_dropShadow_3946_1922"/>
<feBlend mode="normal" in="SourceGraphic" in2="effect1_dropShadow_3946_1922" result="shape"/>
</filter>
</defs>
</svg>
